<?xml version="1.0" standalone="no"?>
<!DOCTYPE svg PUBLIC "-//W3C//DTD SVG 1.1//EN" "http://www.w3.org/Graphics/SVG/1.1/DTD/svg11.dtd" >
<svg xmlns="http://www.w3.org/2000/svg" xmlns:xlink="http://www.w3.org/1999/xlink" version="1.1">
<metadata></metadata>
<defs>
<font id="segment7" horiz-adv-x="1198" >
<font-face units-per-em="2048" ascent="1638" descent="-410" />
<missing-glyph horiz-adv-x="500" />
<glyph d="M0 -410v2048h2001v-2048h-2001z" />
<glyph d="M0 -410v2048h2001v-2048h-2001z" />
<glyph unicode="&#xd;" />
<glyph />
<glyph />
<glyph />
<glyph />
<glyph />
<glyph />
<glyph />
<glyph />
<glyph unicode="&#x9;" />
<glyph unicode="&#xa;" />
<glyph />
<glyph />
<glyph />
<glyph />
<glyph />
<glyph />
<glyph />
<glyph />
<glyph />
<glyph />
<glyph />
<glyph />
<glyph />
<glyph />
<glyph />
<glyph />
<glyph />
<glyph />
<glyph />
<glyph />
<glyph unicode=" " />
<glyph unicode="!" d="M866 938l25 438l184 185q10 -25 10 -33q-5 -102 -16 -300t-16 -300l-72 -76zM1051 57q0 45 29.5 75t72.5 30q38 0 65 -29t27 -72q0 -45 -28.5 -74.5t-71.5 -29.5q-39 0 -66.5 29t-27.5 71z" />
<glyph unicode="&#x22;" d="M135 901l33 567l176 -114l-25 -406l-161 -96zM866 938l25 438l184 185q10 -25 10 -33q-5 -102 -16 -300t-16 -300l-72 -76z" />
<glyph unicode="#" d="M96 72v2l189 114h534q22 -27 67 -84.5t66 -83.5q11 -11 11 -14q0 -10 -21 -10h-352h-291h-145q-7 9 -21.5 26.5t-21.5 26.5q-15 15 -15 23zM188 831l164 91h477l134 -105l-132 -90h-507q-24 22 -72 56.5t-64 47.5zM866 938l25 438l184 185q10 -25 10 -33 q-5 -102 -16 -300t-16 -300l-72 -76z" />
<glyph unicode="$" d="M96 72v2l189 114h534q22 -27 67 -84.5t66 -83.5q11 -11 11 -14q0 -10 -21 -10h-352h-291h-145q-7 9 -21.5 26.5t-21.5 26.5q-15 15 -15 23zM135 901l33 567l176 -114l-25 -406l-161 -96zM180 1505l137 92l736 -10l-187 -184h-522zM831 236l25 464l117 95l69 -78l-38 -590 l-37 -53z" />
<glyph unicode="%" d="M96 72v2l189 114h534q22 -27 67 -84.5t66 -83.5q11 -11 11 -14q0 -10 -21 -10h-352h-291h-145q-7 9 -21.5 26.5t-21.5 26.5q-15 15 -15 23zM135 901l33 567l176 -114l-25 -406l-161 -96zM180 1505l137 92l736 -10l-187 -184h-522zM831 236l25 464l117 95l69 -78l-38 -590 l-37 -53z" />
<glyph unicode="&#x26;" d="M188 831l164 91h477l134 -105l-132 -90h-507q-24 22 -72 56.5t-64 47.5zM831 236l25 464l117 95l69 -78l-38 -590l-37 -53zM866 938l25 438l184 185q10 -25 10 -33q-5 -102 -16 -300t-16 -300l-72 -76z" />
<glyph unicode="'" d="M866 938l25 438l184 185q10 -25 10 -33q-5 -102 -16 -300t-16 -300l-72 -76z" />
<glyph unicode="(" d="M96 72v2l189 114h534q22 -27 67 -84.5t66 -83.5q11 -11 11 -14q0 -10 -21 -10h-352h-291h-145q-7 9 -21.5 26.5t-21.5 26.5q-15 15 -15 23zM96 121l33 622q3 10 14.5 32t14.5 32l151 -107l-24 -477zM135 901l33 567l176 -114l-25 -406l-161 -96zM180 1505l137 92l736 -10 l-187 -184h-522z" />
<glyph unicode=")" d="M96 72v2l189 114h534q22 -27 67 -84.5t66 -83.5q11 -11 11 -14q0 -10 -21 -10h-352h-291h-145q-7 9 -21.5 26.5t-21.5 26.5q-15 15 -15 23zM180 1505l137 92l736 -10l-187 -184h-522zM831 236l25 464l117 95l69 -78l-38 -590l-37 -53zM866 938l25 438l184 185 q10 -25 10 -33q-5 -102 -16 -300t-16 -300l-72 -76z" />
<glyph unicode="*" d="M96 72v2l189 114h534q22 -27 67 -84.5t66 -83.5q11 -11 11 -14q0 -10 -21 -10h-352h-291h-145q-7 9 -21.5 26.5t-21.5 26.5q-15 15 -15 23zM188 831l164 91h477l134 -105l-132 -90h-507q-24 22 -72 56.5t-64 47.5zM866 938l25 438l184 185q10 -25 10 -33 q-5 -102 -16 -300t-16 -300l-72 -76z" />
<glyph unicode="+" d="M188 831l164 91h477l134 -105l-132 -90h-507q-24 22 -72 56.5t-64 47.5zM831 236l25 464l117 95l69 -78l-38 -590l-37 -53zM866 938l25 438l184 185q10 -25 10 -33q-5 -102 -16 -300t-16 -300l-72 -76z" />
<glyph unicode="," d="M96 72v2l189 114h534q22 -27 67 -84.5t66 -83.5q11 -11 11 -14q0 -10 -21 -10h-352h-291h-145q-7 9 -21.5 26.5t-21.5 26.5q-15 15 -15 23zM831 236l25 464l117 95l69 -78l-38 -590l-37 -53z" />
<glyph unicode="-" d="M188 831l164 91h477l134 -105l-132 -90h-507q-24 22 -72 56.5t-64 47.5z" />
<glyph unicode="." d="M1051 57q0 45 29.5 75t72.5 30q38 0 65 -29t27 -72q0 -45 -28.5 -74.5t-71.5 -29.5q-39 0 -66.5 29t-27.5 71z" />
<glyph unicode="/" d="M96 121l33 622q3 10 14.5 32t14.5 32l151 -107l-24 -477zM188 831l164 91h477l134 -105l-132 -90h-507q-24 22 -72 56.5t-64 47.5zM866 938l25 438l184 185q10 -25 10 -33q-5 -102 -16 -300t-16 -300l-72 -76z" />
<glyph unicode="0" d="M96 72v2l189 114h534q22 -27 67 -84.5t66 -83.5q11 -11 11 -14q0 -10 -21 -10h-352h-291h-145q-7 9 -21.5 26.5t-21.5 26.5q-15 15 -15 23zM96 121l33 622q3 10 14.5 32t14.5 32l151 -107l-24 -477zM135 901l33 567l176 -114l-25 -406l-161 -96zM180 1505l137 92l736 -10 l-187 -184h-522zM831 236l25 464l117 95l69 -78l-38 -590l-37 -53zM866 938l25 438l184 185q10 -25 10 -33q-5 -102 -16 -300t-16 -300l-72 -76z" />
<glyph unicode="1" d="M831 236l25 464l117 95l69 -78l-38 -590l-37 -53zM866 938l25 438l184 185q10 -25 10 -33q-5 -102 -16 -300t-16 -300l-72 -76z" />
<glyph unicode="2" d="M96 72v2l189 114h534q22 -27 67 -84.5t66 -83.5q11 -11 11 -14q0 -10 -21 -10h-352h-291h-145q-7 9 -21.5 26.5t-21.5 26.5q-15 15 -15 23zM96 121l33 622q3 10 14.5 32t14.5 32l151 -107l-24 -477zM180 1505l137 92l736 -10l-187 -184h-522zM188 831l164 91h477 l134 -105l-132 -90h-507q-24 22 -72 56.5t-64 47.5zM866 938l25 438l184 185q10 -25 10 -33q-5 -102 -16 -300t-16 -300l-72 -76z" />
<glyph unicode="3" d="M96 72v2l189 114h534q22 -27 67 -84.5t66 -83.5q11 -11 11 -14q0 -10 -21 -10h-352h-291h-145q-7 9 -21.5 26.5t-21.5 26.5q-15 15 -15 23zM180 1505l137 92l736 -10l-187 -184h-522zM188 831l164 91h477l134 -105l-132 -90h-507q-24 22 -72 56.5t-64 47.5zM831 236 l25 464l117 95l69 -78l-38 -590l-37 -53zM866 938l25 438l184 185q10 -25 10 -33q-5 -102 -16 -300t-16 -300l-72 -76z" />
<glyph unicode="4" d="M135 901l33 567l176 -114l-25 -406l-161 -96zM188 831l164 91h477l134 -105l-132 -90h-507q-24 22 -72 56.5t-64 47.5zM831 236l25 464l117 95l69 -78l-38 -590l-37 -53zM866 938l25 438l184 185q10 -25 10 -33q-5 -102 -16 -300t-16 -300l-72 -76z" />
<glyph unicode="5" d="M94 72v4l189 112h536q22 -28 68 -84t67 -84q11 -11 11 -14q0 -10 -23 -10h-352h-289h-147q-7 8 -21.5 25.5t-21.5 25.5l-7 7t-7.5 9.5t-2.5 8.5zM137 903l31 565l176 -112l-22 -408l-164 -96zM182 1507l135 88l734 -6l-185 -186h-520zM188 831l162 91h477l136 -105 l-132 -88h-507q-25 21 -71.5 54.5t-64.5 47.5zM831 233l27 467l117 97l65 -78l-39 -592l-34 -53z" />
<glyph unicode="6" d="M94 72v4l189 112h536q22 -28 68 -84t67 -84q11 -11 11 -14q0 -10 -23 -10h-352h-289h-147q-7 8 -21.5 25.5t-21.5 25.5l-7 7t-7.5 9.5t-2.5 8.5zM96 119l33 624q4 10 13.5 31t13.5 31l153 -105l-24 -477zM137 903l31 565l176 -112l-22 -408l-164 -96zM182 1507l135 88 l734 -6l-185 -186h-520zM188 831l162 91h477l136 -105l-132 -88h-507q-25 21 -71.5 54.5t-64.5 47.5zM831 233l27 467l117 97l65 -78l-39 -592l-34 -53z" />
<glyph unicode="7" d="M180 1505l137 92l736 -10l-187 -184h-522zM831 236l25 464l117 95l69 -78l-38 -590l-37 -53zM866 938l25 438l184 185q10 -25 10 -33q-5 -102 -16 -300t-16 -300l-72 -76z" />
<glyph unicode="8" d="M96 72v2l189 114h534q22 -27 67 -84.5t66 -83.5q11 -11 11 -14q0 -10 -21 -10h-352h-291h-145q-7 9 -21.5 26.5t-21.5 26.5q-15 15 -15 23zM96 121l33 622q3 10 14.5 32t14.5 32l151 -107l-24 -477zM135 901l33 567l176 -114l-25 -406l-161 -96zM180 1505l137 92l736 -10 l-187 -184h-522zM188 831l164 91h477l134 -105l-132 -90h-507q-24 22 -72 56.5t-64 47.5zM831 236l25 464l117 95l69 -78l-38 -590l-37 -53zM866 938l25 438l184 185q10 -25 10 -33q-5 -102 -16 -300t-16 -300l-72 -76z" />
<glyph unicode="9" d="M96 72v2l189 114h534q22 -27 67 -84.5t66 -83.5q11 -11 11 -14q0 -10 -21 -10h-352h-291h-145q-7 9 -21.5 26.5t-21.5 26.5q-15 15 -15 23zM135 901l33 567l176 -114l-25 -406l-161 -96zM180 1505l137 92l736 -10l-187 -184h-522zM188 831l164 91h477l134 -105l-132 -90 h-507q-24 22 -72 56.5t-64 47.5zM831 236l25 464l117 95l69 -78l-38 -590l-37 -53zM866 938l25 438l184 185q10 -25 10 -33q-5 -102 -16 -300t-16 -300l-72 -76z" />
<glyph unicode=":" d="M188 831l164 91h477l134 -105l-132 -90h-507q-24 22 -72 56.5t-64 47.5z" />
<glyph unicode=";" d="M866 938l25 438l184 185q10 -25 10 -33q-5 -102 -16 -300t-16 -300l-72 -76zM1051 57q0 45 29.5 75t72.5 30q38 0 65 -29t27 -72q0 -45 -28.5 -74.5t-71.5 -29.5q-39 0 -66.5 29t-27.5 71z" />
<glyph unicode="&#x3c;" d="M96 72v2l189 114h534q22 -27 67 -84.5t66 -83.5q11 -11 11 -14q0 -10 -21 -10h-352h-291h-145q-7 9 -21.5 26.5t-21.5 26.5q-15 15 -15 23zM96 121l33 622q3 10 14.5 32t14.5 32l151 -107l-24 -477zM188 831l164 91h477l134 -105l-132 -90h-507q-24 22 -72 56.5t-64 47.5 z" />
<glyph unicode="=" d="M96 72v2l189 114h534q22 -27 67 -84.5t66 -83.5q11 -11 11 -14q0 -10 -21 -10h-352h-291h-145q-7 9 -21.5 26.5t-21.5 26.5q-15 15 -15 23zM188 831l164 91h477l134 -105l-132 -90h-507q-24 22 -72 56.5t-64 47.5z" />
<glyph unicode="&#x3e;" d="M96 72v2l189 114h534q22 -27 67 -84.5t66 -83.5q11 -11 11 -14q0 -10 -21 -10h-352h-291h-145q-7 9 -21.5 26.5t-21.5 26.5q-15 15 -15 23zM831 236l25 464l117 95l69 -78l-38 -590l-37 -53z" />
<glyph unicode="?" d="M96 121l33 622q3 10 14.5 32t14.5 32l151 -107l-24 -477zM180 1505l137 92l736 -10l-187 -184h-522zM188 831l164 91h477l134 -105l-132 -90h-507q-24 22 -72 56.5t-64 47.5zM866 938l25 438l184 185q10 -25 10 -33q-5 -102 -16 -300t-16 -300l-72 -76z" />
<glyph unicode="@" d="M96 72v2l189 114h534q22 -27 67 -84.5t66 -83.5q11 -11 11 -14q0 -10 -21 -10h-352h-291h-145q-7 9 -21.5 26.5t-21.5 26.5q-15 15 -15 23zM96 121l33 622q3 10 14.5 32t14.5 32l151 -107l-24 -477zM180 1505l137 92l736 -10l-187 -184h-522zM188 831l164 91h477 l134 -105l-132 -90h-507q-24 22 -72 56.5t-64 47.5zM831 236l25 464l117 95l69 -78l-38 -590l-37 -53zM866 938l25 438l184 185q10 -25 10 -33q-5 -102 -16 -300t-16 -300l-72 -76z" />
<glyph unicode="A" d="M96 121l33 622q3 10 14.5 32t14.5 32l151 -107l-24 -477zM135 901l33 567l176 -114l-25 -406l-161 -96zM180 1505l137 92l736 -10l-187 -184h-522zM188 831l164 91h477l134 -105l-132 -90h-507q-24 22 -72 56.5t-64 47.5zM831 236l25 464l117 95l69 -78l-38 -590l-37 -53 zM866 938l25 438l184 185q10 -25 10 -33q-5 -102 -16 -300t-16 -300l-72 -76z" />
<glyph unicode="B" d="M96 72v2l189 114h534q22 -27 67 -84.5t66 -83.5q11 -11 11 -14q0 -10 -21 -10h-352h-291h-145q-7 9 -21.5 26.5t-21.5 26.5q-15 15 -15 23zM96 121l33 622q3 10 14.5 32t14.5 32l151 -107l-24 -477zM135 901l33 567l176 -114l-25 -406l-161 -96zM188 831l164 91h477 l134 -105l-132 -90h-507q-24 22 -72 56.5t-64 47.5zM831 236l25 464l117 95l69 -78l-38 -590l-37 -53z" />
<glyph unicode="C" d="M96 72v2l189 114h534q22 -27 67 -84.5t66 -83.5q11 -11 11 -14q0 -10 -21 -10h-352h-291h-145q-7 9 -21.5 26.5t-21.5 26.5q-15 15 -15 23zM96 121l33 622q3 10 14.5 32t14.5 32l151 -107l-24 -477zM135 901l33 567l176 -114l-25 -406l-161 -96zM180 1505l137 92l736 -10 l-187 -184h-522z" />
<glyph unicode="D" d="M96 72v2l189 114h534q22 -27 67 -84.5t66 -83.5q11 -11 11 -14q0 -10 -21 -10h-352h-291h-145q-7 9 -21.5 26.5t-21.5 26.5q-15 15 -15 23zM96 121l33 622q3 10 14.5 32t14.5 32l151 -107l-24 -477zM188 831l164 91h477l134 -105l-132 -90h-507q-24 22 -72 56.5t-64 47.5 zM831 236l25 464l117 95l69 -78l-38 -590l-37 -53zM866 938l25 438l184 185q10 -25 10 -33q-5 -102 -16 -300t-16 -300l-72 -76z" />
<glyph unicode="E" d="M96 72v2l189 114h534q22 -27 67 -84.5t66 -83.5q11 -11 11 -14q0 -10 -21 -10h-352h-291h-145q-7 9 -21.5 26.5t-21.5 26.5q-15 15 -15 23zM96 121l33 622q3 10 14.5 32t14.5 32l151 -107l-24 -477zM135 901l33 567l176 -114l-25 -406l-161 -96zM180 1505l137 92l736 -10 l-187 -184h-522zM188 831l164 91h477l134 -105l-132 -90h-507q-24 22 -72 56.5t-64 47.5z" />
<glyph unicode="F" d="M96 121l33 622q3 10 14.5 32t14.5 32l151 -107l-24 -477zM135 901l33 567l176 -114l-25 -406l-161 -96zM180 1505l137 92l736 -10l-187 -184h-522zM188 831l164 91h477l134 -105l-132 -90h-507q-24 22 -72 56.5t-64 47.5z" />
<glyph unicode="G" d="M96 72v2l189 114h534q22 -27 67 -84.5t66 -83.5q11 -11 11 -14q0 -10 -21 -10h-352h-291h-145q-7 9 -21.5 26.5t-21.5 26.5q-15 15 -15 23zM96 121l33 622q3 10 14.5 32t14.5 32l151 -107l-24 -477zM135 901l33 567l176 -114l-25 -406l-161 -96zM180 1505l137 92l736 -10 l-187 -184h-522zM831 236l25 464l117 95l69 -78l-38 -590l-37 -53z" />
<glyph unicode="H" d="M96 121l33 622q3 10 14.5 32t14.5 32l151 -107l-24 -477zM135 901l33 567l176 -114l-25 -406l-161 -96zM188 831l164 91h477l134 -105l-132 -90h-507q-24 22 -72 56.5t-64 47.5zM831 236l25 464l117 95l69 -78l-38 -590l-37 -53zM866 938l25 438l184 185q10 -25 10 -33 q-5 -102 -16 -300t-16 -300l-72 -76z" />
<glyph unicode="I" d="M831 236l25 464l117 95l69 -78l-38 -590l-37 -53zM866 938l25 438l184 185q10 -25 10 -33q-5 -102 -16 -300t-16 -300l-72 -76z" />
<glyph unicode="J" d="M96 72v2l189 114h534q22 -27 67 -84.5t66 -83.5q11 -11 11 -14q0 -10 -21 -10h-352h-291h-145q-7 9 -21.5 26.5t-21.5 26.5q-15 15 -15 23zM96 121l33 622q3 10 14.5 32t14.5 32l151 -107l-24 -477zM831 236l25 464l117 95l69 -78l-38 -590l-37 -53zM866 938l25 438 l184 185q10 -25 10 -33q-5 -102 -16 -300t-16 -300l-72 -76z" />
<glyph unicode="K" d="M96 121l33 622q3 10 14.5 32t14.5 32l151 -107l-24 -477zM135 901l33 567l176 -114l-25 -406l-161 -96zM180 1505l137 92l736 -10l-187 -184h-522zM188 831l164 91h477l134 -105l-132 -90h-507q-24 22 -72 56.5t-64 47.5zM831 236l25 464l117 95l69 -78l-38 -590l-37 -53 z" />
<glyph unicode="L" d="M96 72v2l189 114h534q22 -27 67 -84.5t66 -83.5q11 -11 11 -14q0 -10 -21 -10h-352h-291h-145q-7 9 -21.5 26.5t-21.5 26.5q-15 15 -15 23zM96 121l33 622q3 10 14.5 32t14.5 32l151 -107l-24 -477zM135 901l33 567l176 -114l-25 -406l-161 -96z" />
<glyph unicode="M" d="M96 121l33 622q3 10 14.5 32t14.5 32l151 -107l-24 -477zM188 831l164 91h477l134 -105l-132 -90h-507q-24 22 -72 56.5t-64 47.5zM831 236l25 464l117 95l69 -78l-38 -590l-37 -53zM866 938l25 438l184 185q10 -25 10 -33q-5 -102 -16 -300t-16 -300l-72 -76z" />
<glyph unicode="N" d="M96 121l33 622q3 10 14.5 32t14.5 32l151 -107l-24 -477zM135 901l33 567l176 -114l-25 -406l-161 -96zM180 1505l137 92l736 -10l-187 -184h-522zM831 236l25 464l117 95l69 -78l-38 -590l-37 -53zM866 938l25 438l184 185q10 -25 10 -33q-5 -102 -16 -300t-16 -300 l-72 -76z" />
<glyph unicode="O" d="M96 72v2l189 114h534q22 -27 67 -84.5t66 -83.5q11 -11 11 -14q0 -10 -21 -10h-352h-291h-145q-7 9 -21.5 26.5t-21.5 26.5q-15 15 -15 23zM96 121l33 622q3 10 14.5 32t14.5 32l151 -107l-24 -477zM135 901l33 567l176 -114l-25 -406l-161 -96zM180 1505l137 92l736 -10 l-187 -184h-522zM831 236l25 464l117 95l69 -78l-38 -590l-37 -53zM866 938l25 438l184 185q10 -25 10 -33q-5 -102 -16 -300t-16 -300l-72 -76z" />
<glyph unicode="P" d="M96 121l33 622q3 10 14.5 32t14.5 32l151 -107l-24 -477zM135 901l33 567l176 -114l-25 -406l-161 -96zM180 1505l137 92l736 -10l-187 -184h-522zM188 831l164 91h477l134 -105l-132 -90h-507q-24 22 -72 56.5t-64 47.5zM866 938l25 438l184 185q10 -25 10 -33 q-5 -102 -16 -300t-16 -300l-72 -76z" />
<glyph unicode="Q" d="M135 901l33 567l176 -114l-25 -406l-161 -96zM180 1505l137 92l736 -10l-187 -184h-522zM188 831l164 91h477l134 -105l-132 -90h-507q-24 22 -72 56.5t-64 47.5zM831 236l25 464l117 95l69 -78l-38 -590l-37 -53zM866 938l25 438l184 185q10 -25 10 -33 q-5 -102 -16 -300t-16 -300l-72 -76z" />
<glyph unicode="R" d="M96 121l33 622q3 10 14.5 32t14.5 32l151 -107l-24 -477zM188 831l164 91h477l134 -105l-132 -90h-507q-24 22 -72 56.5t-64 47.5z" />
<glyph unicode="S" d="M94 72v4l189 112h536q22 -28 68 -84t67 -84q11 -11 11 -14q0 -10 -23 -10h-352h-289h-147q-7 8 -21.5 25.5t-21.5 25.5l-7 7t-7.5 9.5t-2.5 8.5zM137 903l31 565l176 -112l-22 -408l-164 -96zM182 1507l135 88l734 -6l-185 -186h-520zM188 831l162 91h477l136 -105 l-132 -88h-507q-25 21 -71.5 54.5t-64.5 47.5zM831 233l27 467l117 97l65 -78l-39 -592l-34 -53z" />
<glyph unicode="T" d="M96 72v2l189 114h534q22 -27 67 -84.5t66 -83.5q11 -11 11 -14q0 -10 -21 -10h-352h-291h-145q-7 9 -21.5 26.5t-21.5 26.5q-15 15 -15 23zM96 121l33 622q3 10 14.5 32t14.5 32l151 -107l-24 -477zM135 901l33 567l176 -114l-25 -406l-161 -96zM188 831l164 91h477 l134 -105l-132 -90h-507q-24 22 -72 56.5t-64 47.5z" />
<glyph unicode="U" d="M96 72v2l189 114h534q22 -27 67 -84.5t66 -83.5q11 -11 11 -14q0 -10 -21 -10h-352h-291h-145q-7 9 -21.5 26.5t-21.5 26.5q-15 15 -15 23zM96 121l33 622q3 10 14.5 32t14.5 32l151 -107l-24 -477zM135 901l33 567l176 -114l-25 -406l-161 -96zM831 236l25 464l117 95 l69 -78l-38 -590l-37 -53zM866 938l25 438l184 185q10 -25 10 -33q-5 -102 -16 -300t-16 -300l-72 -76z" />
<glyph unicode="V" d="M96 72v2l189 114h534q22 -27 67 -84.5t66 -83.5q11 -11 11 -14q0 -10 -21 -10h-352h-291h-145q-7 9 -21.5 26.5t-21.5 26.5q-15 15 -15 23zM96 121l33 622q3 10 14.5 32t14.5 32l151 -107l-24 -477zM135 901l33 567l176 -114l-25 -406l-161 -96zM831 236l25 464l117 95 l69 -78l-38 -590l-37 -53zM866 938l25 438l184 185q10 -25 10 -33q-5 -102 -16 -300t-16 -300l-72 -76z" />
<glyph unicode="W" d="M96 72v2l189 114h534q22 -27 67 -84.5t66 -83.5q11 -11 11 -14q0 -10 -21 -10h-352h-291h-145q-7 9 -21.5 26.5t-21.5 26.5q-15 15 -15 23zM96 121l33 622q3 10 14.5 32t14.5 32l151 -107l-24 -477zM135 901l33 567l176 -114l-25 -406l-161 -96zM188 831l164 91h477 l134 -105l-132 -90h-507q-24 22 -72 56.5t-64 47.5zM831 236l25 464l117 95l69 -78l-38 -590l-37 -53zM866 938l25 438l184 185q10 -25 10 -33q-5 -102 -16 -300t-16 -300l-72 -76z" />
<glyph unicode="X" d="M96 72v2l189 114h534q22 -27 67 -84.5t66 -83.5q11 -11 11 -14q0 -10 -21 -10h-352h-291h-145q-7 9 -21.5 26.5t-21.5 26.5q-15 15 -15 23zM180 1505l137 92l736 -10l-187 -184h-522zM188 831l164 91h477l134 -105l-132 -90h-507q-24 22 -72 56.5t-64 47.5z" />
<glyph unicode="Y" d="M96 72v2l189 114h534q22 -27 67 -84.5t66 -83.5q11 -11 11 -14q0 -10 -21 -10h-352h-291h-145q-7 9 -21.5 26.5t-21.5 26.5q-15 15 -15 23zM135 901l33 567l176 -114l-25 -406l-161 -96zM188 831l164 91h477l134 -105l-132 -90h-507q-24 22 -72 56.5t-64 47.5zM831 236 l25 464l117 95l69 -78l-38 -590l-37 -53zM866 938l25 438l184 185q10 -25 10 -33q-5 -102 -16 -300t-16 -300l-72 -76z" />
<glyph unicode="Z" d="M96 121l33 622q3 10 14.5 32t14.5 32l151 -107l-24 -477zM180 1505l137 92l736 -10l-187 -184h-522zM188 831l164 91h477l134 -105l-132 -90h-507q-24 22 -72 56.5t-64 47.5zM866 938l25 438l184 185q10 -25 10 -33q-5 -102 -16 -300t-16 -300l-72 -76z" />
<glyph unicode="[" d="M96 72v2l189 114h534q22 -27 67 -84.5t66 -83.5q11 -11 11 -14q0 -10 -21 -10h-352h-291h-145q-7 9 -21.5 26.5t-21.5 26.5q-15 15 -15 23zM96 121l33 622q3 10 14.5 32t14.5 32l151 -107l-24 -477zM135 901l33 567l176 -114l-25 -406l-161 -96zM180 1505l137 92l736 -10 l-187 -184h-522z" />
<glyph unicode="\" d="M135 901l33 567l176 -114l-25 -406l-161 -96zM188 831l164 91h477l134 -105l-132 -90h-507q-24 22 -72 56.5t-64 47.5zM831 236l25 464l117 95l69 -78l-38 -590l-37 -53z" />
<glyph unicode="]" d="M96 72v2l189 114h534q22 -27 67 -84.5t66 -83.5q11 -11 11 -14q0 -10 -21 -10h-352h-291h-145q-7 9 -21.5 26.5t-21.5 26.5q-15 15 -15 23zM180 1505l137 92l736 -10l-187 -184h-522zM831 236l25 464l117 95l69 -78l-38 -590l-37 -53zM866 938l25 438l184 185 q10 -25 10 -33q-5 -102 -16 -300t-16 -300l-72 -76z" />
<glyph unicode="^" d="M135 901l33 567l176 -114l-25 -406l-161 -96zM180 1505l137 92l736 -10l-187 -184h-522zM866 938l25 438l184 185q10 -25 10 -33q-5 -102 -16 -300t-16 -300l-72 -76z" />
<glyph unicode="_" d="M188 831l164 91h477l134 -105l-132 -90h-507q-24 22 -72 56.5t-64 47.5z" />
<glyph unicode="`" d="M866 938l25 438l184 185q10 -25 10 -33q-5 -102 -16 -300t-16 -300l-72 -76z" />
<glyph unicode="a" d="M96 72v2l189 114h534q22 -27 67 -84.5t66 -83.5q11 -11 11 -14q0 -10 -21 -10h-352h-291h-145q-7 9 -21.5 26.5t-21.5 26.5q-15 15 -15 23zM96 121l33 622q3 10 14.5 32t14.5 32l151 -107l-24 -477zM180 1505l137 92l736 -10l-187 -184h-522zM188 831l164 91h477 l134 -105l-132 -90h-507q-24 22 -72 56.5t-64 47.5zM831 236l25 464l117 95l69 -78l-38 -590l-37 -53zM866 938l25 438l184 185q10 -25 10 -33q-5 -102 -16 -300t-16 -300l-72 -76z" />
<glyph unicode="b" d="M96 72v2l189 114h534q22 -27 67 -84.5t66 -83.5q11 -11 11 -14q0 -10 -21 -10h-352h-291h-145q-7 9 -21.5 26.5t-21.5 26.5q-15 15 -15 23zM96 121l33 622q3 10 14.5 32t14.5 32l151 -107l-24 -477zM135 901l33 567l176 -114l-25 -406l-161 -96zM188 831l164 91h477 l134 -105l-132 -90h-507q-24 22 -72 56.5t-64 47.5zM831 236l25 464l117 95l69 -78l-38 -590l-37 -53z" />
<glyph unicode="c" d="M96 72v2l189 114h534q22 -27 67 -84.5t66 -83.5q11 -11 11 -14q0 -10 -21 -10h-352h-291h-145q-7 9 -21.5 26.5t-21.5 26.5q-15 15 -15 23zM96 121l33 622q3 10 14.5 32t14.5 32l151 -107l-24 -477zM188 831l164 91h477l134 -105l-132 -90h-507q-24 22 -72 56.5t-64 47.5 z" />
<glyph unicode="d" d="M96 72v2l189 114h534q22 -27 67 -84.5t66 -83.5q11 -11 11 -14q0 -10 -21 -10h-352h-291h-145q-7 9 -21.5 26.5t-21.5 26.5q-15 15 -15 23zM96 121l33 622q3 10 14.5 32t14.5 32l151 -107l-24 -477zM188 831l164 91h477l134 -105l-132 -90h-507q-24 22 -72 56.5t-64 47.5 zM831 236l25 464l117 95l69 -78l-38 -590l-37 -53zM866 938l25 438l184 185q10 -25 10 -33q-5 -102 -16 -300t-16 -300l-72 -76z" />
<glyph unicode="e" d="M96 72v2l189 114h534q22 -27 67 -84.5t66 -83.5q11 -11 11 -14q0 -10 -21 -10h-352h-291h-145q-7 9 -21.5 26.5t-21.5 26.5q-15 15 -15 23zM96 121l33 622q3 10 14.5 32t14.5 32l151 -107l-24 -477zM135 901l33 567l176 -114l-25 -406l-161 -96zM180 1505l137 92l736 -10 l-187 -184h-522zM188 831l164 91h477l134 -105l-132 -90h-507q-24 22 -72 56.5t-64 47.5zM866 938l25 438l184 185q10 -25 10 -33q-5 -102 -16 -300t-16 -300l-72 -76z" />
<glyph unicode="f" d="M96 121l33 622q3 10 14.5 32t14.5 32l151 -107l-24 -477zM135 901l33 567l176 -114l-25 -406l-161 -96zM180 1505l137 92l736 -10l-187 -184h-522zM188 831l164 91h477l134 -105l-132 -90h-507q-24 22 -72 56.5t-64 47.5z" />
<glyph unicode="g" d="M96 72v2l189 114h534q22 -27 67 -84.5t66 -83.5q11 -11 11 -14q0 -10 -21 -10h-352h-291h-145q-7 9 -21.5 26.5t-21.5 26.5q-15 15 -15 23zM135 901l33 567l176 -114l-25 -406l-161 -96zM180 1505l137 92l736 -10l-187 -184h-522zM188 831l164 91h477l134 -105l-132 -90 h-507q-24 22 -72 56.5t-64 47.5zM831 236l25 464l117 95l69 -78l-38 -590l-37 -53zM866 938l25 438l184 185q10 -25 10 -33q-5 -102 -16 -300t-16 -300l-72 -76z" />
<glyph unicode="h" d="M96 121l33 622q3 10 14.5 32t14.5 32l151 -107l-24 -477zM135 901l33 567l176 -114l-25 -406l-161 -96zM188 831l164 91h477l134 -105l-132 -90h-507q-24 22 -72 56.5t-64 47.5zM831 236l25 464l117 95l69 -78l-38 -590l-37 -53z" />
<glyph unicode="i" d="M831 236l25 464l117 95l69 -78l-38 -590l-37 -53z" />
<glyph unicode="j" d="M96 72v2l189 114h534q22 -27 67 -84.5t66 -83.5q11 -11 11 -14q0 -10 -21 -10h-352h-291h-145q-7 9 -21.5 26.5t-21.5 26.5q-15 15 -15 23zM96 121l33 622q3 10 14.5 32t14.5 32l151 -107l-24 -477zM831 236l25 464l117 95l69 -78l-38 -590l-37 -53zM866 938l25 438 l184 185q10 -25 10 -33q-5 -102 -16 -300t-16 -300l-72 -76z" />
<glyph unicode="k" d="M96 121l33 622q3 10 14.5 32t14.5 32l151 -107l-24 -477zM135 901l33 567l176 -114l-25 -406l-161 -96zM180 1505l137 92l736 -10l-187 -184h-522zM188 831l164 91h477l134 -105l-132 -90h-507q-24 22 -72 56.5t-64 47.5zM831 236l25 464l117 95l69 -78l-38 -590l-37 -53 z" />
<glyph unicode="l" d="M96 72v2l189 114h534q22 -27 67 -84.5t66 -83.5q11 -11 11 -14q0 -10 -21 -10h-352h-291h-145q-7 9 -21.5 26.5t-21.5 26.5q-15 15 -15 23zM96 121l33 622q3 10 14.5 32t14.5 32l151 -107l-24 -477zM135 901l33 567l176 -114l-25 -406l-161 -96z" />
<glyph unicode="m" d="M96 121l33 622q3 10 14.5 32t14.5 32l151 -107l-24 -477zM135 901l33 567l176 -114l-25 -406l-161 -96zM188 831l164 91h477l134 -105l-132 -90h-507q-24 22 -72 56.5t-64 47.5zM866 938l25 438l184 185q10 -25 10 -33q-5 -102 -16 -300t-16 -300l-72 -76z" />
<glyph unicode="n" d="M96 121l33 622q3 10 14.5 32t14.5 32l151 -107l-24 -477zM188 831l164 91h477l134 -105l-132 -90h-507q-24 22 -72 56.5t-64 47.5zM831 236l25 464l117 95l69 -78l-38 -590l-37 -53z" />
<glyph unicode="o" d="M96 72v2l189 114h534q22 -27 67 -84.5t66 -83.5q11 -11 11 -14q0 -10 -21 -10h-352h-291h-145q-7 9 -21.5 26.5t-21.5 26.5q-15 15 -15 23zM96 121l33 622q3 10 14.5 32t14.5 32l151 -107l-24 -477zM188 831l164 91h477l134 -105l-132 -90h-507q-24 22 -72 56.5t-64 47.5 zM831 236l25 464l117 95l69 -78l-38 -590l-37 -53z" />
<glyph unicode="p" d="M96 121l33 622q3 10 14.5 32t14.5 32l151 -107l-24 -477zM135 901l33 567l176 -114l-25 -406l-161 -96zM180 1505l137 92l736 -10l-187 -184h-522zM188 831l164 91h477l134 -105l-132 -90h-507q-24 22 -72 56.5t-64 47.5zM866 938l25 438l184 185q10 -25 10 -33 q-5 -102 -16 -300t-16 -300l-72 -76z" />
<glyph unicode="q" d="M135 901l33 567l176 -114l-25 -406l-161 -96zM180 1505l137 92l736 -10l-187 -184h-522zM188 831l164 91h477l134 -105l-132 -90h-507q-24 22 -72 56.5t-64 47.5zM831 236l25 464l117 95l69 -78l-38 -590l-37 -53zM866 938l25 438l184 185q10 -25 10 -33 q-5 -102 -16 -300t-16 -300l-72 -76z" />
<glyph unicode="r" d="M96 121l33 622q3 10 14.5 32t14.5 32l151 -107l-24 -477zM188 831l164 91h477l134 -105l-132 -90h-507q-24 22 -72 56.5t-64 47.5z" />
<glyph unicode="s" d="M94 72v4l189 112h536q22 -28 68 -84t67 -84q11 -11 11 -14q0 -10 -23 -10h-352h-289h-147q-7 8 -21.5 25.5t-21.5 25.5l-7 7t-7.5 9.5t-2.5 8.5zM137 903l31 565l176 -112l-22 -408l-164 -96zM182 1507l135 88l734 -6l-185 -186h-520zM188 831l162 91h477l136 -105 l-132 -88h-507q-25 21 -71.5 54.5t-64.5 47.5zM831 233l27 467l117 97l65 -78l-39 -592l-34 -53z" />
<glyph unicode="t" d="M96 72v2l189 114h534q22 -27 67 -84.5t66 -83.5q11 -11 11 -14q0 -10 -21 -10h-352h-291h-145q-7 9 -21.5 26.5t-21.5 26.5q-15 15 -15 23zM96 121l33 622q3 10 14.5 32t14.5 32l151 -107l-24 -477zM135 901l33 567l176 -114l-25 -406l-161 -96zM188 831l164 91h477 l134 -105l-132 -90h-507q-24 22 -72 56.5t-64 47.5z" />
<glyph unicode="u" d="M96 72v2l189 114h534q22 -27 67 -84.5t66 -83.5q11 -11 11 -14q0 -10 -21 -10h-352h-291h-145q-7 9 -21.5 26.5t-21.5 26.5q-15 15 -15 23zM96 121l33 622q3 10 14.5 32t14.5 32l151 -107l-24 -477zM831 236l25 464l117 95l69 -78l-38 -590l-37 -53z" />
<glyph unicode="v" d="M96 72v2l189 114h534q22 -27 67 -84.5t66 -83.5q11 -11 11 -14q0 -10 -21 -10h-352h-291h-145q-7 9 -21.5 26.5t-21.5 26.5q-15 15 -15 23zM96 121l33 622q3 10 14.5 32t14.5 32l151 -107l-24 -477zM135 901l33 567l176 -114l-25 -406l-161 -96zM831 236l25 464l117 95 l69 -78l-38 -590l-37 -53zM866 938l25 438l184 185q10 -25 10 -33q-5 -102 -16 -300t-16 -300l-72 -76z" />
<glyph unicode="w" d="M96 72v2l189 114h534q22 -27 67 -84.5t66 -83.5q11 -11 11 -14q0 -10 -21 -10h-352h-291h-145q-7 9 -21.5 26.5t-21.5 26.5q-15 15 -15 23zM96 121l33 622q3 10 14.5 32t14.5 32l151 -107l-24 -477zM135 901l33 567l176 -114l-25 -406l-161 -96zM188 831l164 91h477 l134 -105l-132 -90h-507q-24 22 -72 56.5t-64 47.5zM831 236l25 464l117 95l69 -78l-38 -590l-37 -53zM866 938l25 438l184 185q10 -25 10 -33q-5 -102 -16 -300t-16 -300l-72 -76z" />
<glyph unicode="x" d="M96 121l33 622q3 10 14.5 32t14.5 32l151 -107l-24 -477zM135 901l33 567l176 -114l-25 -406l-161 -96zM188 831l164 91h477l134 -105l-132 -90h-507q-24 22 -72 56.5t-64 47.5zM831 236l25 464l117 95l69 -78l-38 -590l-37 -53zM866 938l25 438l184 185q10 -25 10 -33 q-5 -102 -16 -300t-16 -300l-72 -76z" />
<glyph unicode="y" d="M96 72v2l189 114h534q22 -27 67 -84.5t66 -83.5q11 -11 11 -14q0 -10 -21 -10h-352h-291h-145q-7 9 -21.5 26.5t-21.5 26.5q-15 15 -15 23zM135 901l33 567l176 -114l-25 -406l-161 -96zM188 831l164 91h477l134 -105l-132 -90h-507q-24 22 -72 56.5t-64 47.5zM831 236 l25 464l117 95l69 -78l-38 -590l-37 -53zM866 938l25 438l184 185q10 -25 10 -33q-5 -102 -16 -300t-16 -300l-72 -76z" />
<glyph unicode="z" d="M96 121l33 622q3 10 14.5 32t14.5 32l151 -107l-24 -477zM188 831l164 91h477l134 -105l-132 -90h-507q-24 22 -72 56.5t-64 47.5zM866 938l25 438l184 185q10 -25 10 -33q-5 -102 -16 -300t-16 -300l-72 -76z" />
<glyph unicode="{" />
<glyph unicode="|" d="M831 236l25 464l117 95l69 -78l-38 -590l-37 -53zM866 938l25 438l184 185q10 -25 10 -33q-5 -102 -16 -300t-16 -300l-72 -76z" />
<glyph unicode="}" />
<glyph unicode="~" d="M96 72v2l189 114h534q22 -27 67 -84.5t66 -83.5q11 -11 11 -14q0 -10 -21 -10h-352h-291h-145q-7 9 -21.5 26.5t-21.5 26.5q-15 15 -15 23zM96 121l33 622q3 10 14.5 32t14.5 32l151 -107l-24 -477zM180 1505l137 92l736 -10l-187 -184h-522zM866 938l25 438l184 185 q10 -25 10 -33q-5 -102 -16 -300t-16 -300l-72 -76z" />
<glyph />
<glyph />
<glyph />
<glyph />
<glyph />
<glyph />
<glyph unicode="&#x85;" />
<glyph />
<glyph />
<glyph />
<glyph />
<glyph />
<glyph />
<glyph />
<glyph />
<glyph />
<glyph />
<glyph />
<glyph />
<glyph />
<glyph />
<glyph />
<glyph />
<glyph />
<glyph />
<glyph />
<glyph />
<glyph />
<glyph />
<glyph />
<glyph />
<glyph />
<glyph />
<glyph unicode="&#xa0;" />
<glyph unicode="&#xa1;" />
<glyph unicode="&#xa2;" />
<glyph unicode="&#xa3;" />
<glyph unicode="&#xa4;" />
<glyph unicode="&#xa5;" />
<glyph unicode="&#xa6;" />
<glyph unicode="&#xa7;" />
<glyph unicode="&#xa8;" />
<glyph unicode="&#xa9;" />
<glyph unicode="&#xaa;" />
<glyph unicode="&#xab;" />
<glyph unicode="&#xac;" />
<glyph unicode="&#xad;" />
<glyph unicode="&#xae;" />
<glyph unicode="&#xaf;" />
<glyph unicode="&#xb0;" d="M135 901l33 567l176 -114l-25 -406l-161 -96zM180 1505l137 92l736 -10l-187 -184h-522zM188 831l164 91h477l134 -105l-132 -90h-507q-24 22 -72 56.5t-64 47.5zM866 938l25 438l184 185q10 -25 10 -33q-5 -102 -16 -300t-16 -300l-72 -76z" />
<glyph unicode="&#xb1;" />
<glyph unicode="&#xb2;" />
<glyph unicode="&#xb3;" />
<glyph unicode="&#xb4;" />
<glyph unicode="&#xb5;" d="M96 121l33 622q3 10 14.5 32t14.5 32l151 -107l-24 -477zM135 901l33 567l176 -114l-25 -406l-161 -96zM188 831l164 91h477l134 -105l-132 -90h-507q-24 22 -72 56.5t-64 47.5zM866 938l25 438l184 185q10 -25 10 -33q-5 -102 -16 -300t-16 -300l-72 -76z" />
<glyph unicode="&#xb6;" />
<glyph unicode="&#xb7;" />
<glyph unicode="&#xb8;" />
<glyph unicode="&#xb9;" />
<glyph unicode="&#xba;" />
<glyph unicode="&#xbb;" />
<glyph unicode="&#xbc;" />
<glyph unicode="&#xbd;" />
<glyph unicode="&#xbe;" />
<glyph unicode="&#xbf;" />
<glyph unicode="&#xc0;" />
<glyph unicode="&#xc1;" />
<glyph unicode="&#xc2;" />
<glyph unicode="&#xc3;" />
<glyph unicode="&#xc4;" />
<glyph unicode="&#xc5;" />
<glyph unicode="&#xc6;" />
<glyph unicode="&#xc7;" />
<glyph unicode="&#xc8;" />
<glyph unicode="&#xc9;" />
<glyph unicode="&#xca;" />
<glyph unicode="&#xcb;" />
<glyph unicode="&#xcc;" />
<glyph unicode="&#xcd;" />
<glyph unicode="&#xce;" />
<glyph unicode="&#xcf;" />
<glyph unicode="&#xd0;" />
<glyph unicode="&#xd1;" />
<glyph unicode="&#xd2;" />
<glyph unicode="&#xd3;" />
<glyph unicode="&#xd4;" />
<glyph unicode="&#xd5;" />
<glyph unicode="&#xd6;" />
<glyph unicode="&#xd7;" />
<glyph unicode="&#xd8;" />
<glyph unicode="&#xd9;" />
<glyph unicode="&#xda;" />
<glyph unicode="&#xdb;" />
<glyph unicode="&#xdc;" />
<glyph unicode="&#xdd;" />
<glyph unicode="&#xde;" />
<glyph unicode="&#xdf;" />
<glyph unicode="&#xe0;" d="M96 72v2l189 114h534q22 -27 67 -84.5t66 -83.5q11 -11 11 -14q0 -10 -21 -10h-352h-291h-145q-7 9 -21.5 26.5t-21.5 26.5q-15 15 -15 23zM96 121l33 622q3 10 14.5 32t14.5 32l151 -107l-24 -477zM180 1505l137 92l736 -10l-187 -184h-522zM188 831l164 91h477 l134 -105l-132 -90h-507q-24 22 -72 56.5t-64 47.5zM831 236l25 464l117 95l69 -78l-38 -590l-37 -53zM866 938l25 438l184 185q10 -25 10 -33q-5 -102 -16 -300t-16 -300l-72 -76z" />
<glyph unicode="&#xe1;" d="M96 72v2l189 114h534q22 -27 67 -84.5t66 -83.5q11 -11 11 -14q0 -10 -21 -10h-352h-291h-145q-7 9 -21.5 26.5t-21.5 26.5q-15 15 -15 23zM96 121l33 622q3 10 14.5 32t14.5 32l151 -107l-24 -477zM180 1505l137 92l736 -10l-187 -184h-522zM188 831l164 91h477 l134 -105l-132 -90h-507q-24 22 -72 56.5t-64 47.5zM831 236l25 464l117 95l69 -78l-38 -590l-37 -53zM866 938l25 438l184 185q10 -25 10 -33q-5 -102 -16 -300t-16 -300l-72 -76z" />
<glyph unicode="&#xe2;" />
<glyph unicode="&#xe3;" />
<glyph unicode="&#xe4;" />
<glyph unicode="&#xe5;" />
<glyph unicode="&#xe6;" />
<glyph unicode="&#xe7;" />
<glyph unicode="&#xe8;" />
<glyph unicode="&#xe9;" d="M96 72v2l189 114h534q22 -27 67 -84.5t66 -83.5q11 -11 11 -14q0 -10 -21 -10h-352h-291h-145q-7 9 -21.5 26.5t-21.5 26.5q-15 15 -15 23zM96 121l33 622q3 10 14.5 32t14.5 32l151 -107l-24 -477zM135 901l33 567l176 -114l-25 -406l-161 -96zM180 1505l137 92l736 -10 l-187 -184h-522zM188 831l164 91h477l134 -105l-132 -90h-507q-24 22 -72 56.5t-64 47.5zM866 938l25 438l184 185q10 -25 10 -33q-5 -102 -16 -300t-16 -300l-72 -76z" />
<glyph unicode="&#xea;" />
<glyph unicode="&#xeb;" />
<glyph unicode="&#xec;" />
<glyph unicode="&#xed;" />
<glyph unicode="&#xee;" />
<glyph unicode="&#xef;" />
<glyph unicode="&#xf0;" />
<glyph unicode="&#xf1;" />
<glyph unicode="&#xf2;" />
<glyph unicode="&#xf3;" />
<glyph unicode="&#xf4;" />
<glyph unicode="&#xf5;" />
<glyph unicode="&#xf6;" />
<glyph unicode="&#xf7;" />
<glyph unicode="&#xf8;" />
<glyph unicode="&#xf9;" />
<glyph unicode="&#xfa;" />
<glyph unicode="&#xfb;" />
<glyph unicode="&#xfc;" />
<glyph unicode="&#xfd;" />
<glyph unicode="&#xfe;" />
<glyph unicode="&#xff;" />
<glyph unicode="&#x2000;" horiz-adv-x="819" />
<glyph unicode="&#x2001;" horiz-adv-x="1638" />
<glyph unicode="&#x2002;" horiz-adv-x="819" />
<glyph unicode="&#x2003;" horiz-adv-x="1638" />
<glyph unicode="&#x2004;" horiz-adv-x="546" />
<glyph unicode="&#x2005;" horiz-adv-x="409" />
<glyph unicode="&#x2006;" horiz-adv-x="273" />
<glyph unicode="&#x2007;" horiz-adv-x="273" />
<glyph unicode="&#x2008;" horiz-adv-x="204" />
<glyph unicode="&#x2009;" horiz-adv-x="327" />
<glyph unicode="&#x200a;" horiz-adv-x="91" />
<glyph unicode="&#x2010;" d="M188 831l164 91h477l134 -105l-132 -90h-507q-24 22 -72 56.5t-64 47.5z" />
<glyph unicode="&#x2011;" d="M188 831l164 91h477l134 -105l-132 -90h-507q-24 22 -72 56.5t-64 47.5z" />
<glyph unicode="&#x2012;" d="M188 831l164 91h477l134 -105l-132 -90h-507q-24 22 -72 56.5t-64 47.5z" />
<glyph unicode="&#x2013;" horiz-adv-x="1447" d="M188 831l217 91h630l177 -105l-174 -90h-670q-32 22 -95.5 56.5t-84.5 47.5z" />
<glyph unicode="&#x2014;" horiz-adv-x="2471" d="M188 831l433 91h1261l354 -105l-349 -90h-1340q-63 22 -190 56.5t-169 47.5z" />
<glyph unicode="&#x202f;" horiz-adv-x="327" />
<glyph unicode="&#x205f;" horiz-adv-x="409" />
<glyph unicode="&#x25fc;" horiz-adv-x="1556" d="M0 0v1556h1556v-1556h-1556z" />
</font>
</defs>
</svg>
